<?xml version="1.0" encoding="utf-8"?>
<!-- Generator: Adobe Illustrator 27.6.1, SVG Export Plug-In . SVG Version: 6.00 Build 0)  -->
<svg version="1.1" id="レイヤー_1" xmlns="http://www.w3.org/2000/svg" xmlns:xlink="http://www.w3.org/1999/xlink" x="0px"
	 y="0px" viewBox="0 0 153 19" style="enable-background:new 0 0 153 19;" xml:space="preserve">
<style type="text/css">
	.st0{fill:#91003C;}
</style>
<g>
	<path class="st0" d="M54.89,0.62h-3.94c-0.39,0-0.81,0.3-0.95,0.66l-3.63,9.87l-3.63-9.87c-0.13-0.36-0.56-0.66-0.95-0.66h-3.94
		c-0.39,0-0.6,0.3-0.46,0.66l6.06,16.49c0.13,0.36,0.56,0.66,0.95,0.66h3.94c0.39,0,0.81-0.3,0.95-0.66l6.06-16.49
		C55.48,0.91,55.27,0.62,54.89,0.62"/>
	<path class="st0" d="M69.66,17.77L63.6,1.28c-0.13-0.36-0.56-0.66-0.95-0.66h-4.24c-0.39,0-0.81,0.3-0.95,0.66l-6.06,16.49
		c-0.13,0.36,0.07,0.66,0.46,0.66h8.49c0.39,0,0.81-0.3,0.93-0.66l0.86-2.52c0.13-0.37-0.19-0.83-0.57-0.83h-3.59l2.54-6.92
		l3.78,10.27c0.13,0.36,0.56,0.66,0.95,0.66h3.94C69.59,18.43,69.8,18.13,69.66,17.77"/>
	<path class="st0" d="M29.79,0.62h-7.47c-0.39,0-0.7,0.32-0.7,0.7v16.41c0,0.39,0.32,0.7,0.7,0.7h7.47c0,0,8.73,0.73,8.74-8.91
		C38.52,0.57,29.79,0.62,29.79,0.62 M29.86,14.01h-2.89V5.16h2.89c0,0,3.34,0.1,3.34,4.43C33.19,13.47,30.19,14.01,29.86,14.01"/>
	<path class="st0" d="M85.75,0.62h-3.94c-0.39,0-0.7,0.32-0.7,0.7v8.55l-5.37-8.65c-0.2-0.33-0.68-0.6-1.07-0.6h-3.75
		c-0.05,0-0.1,0.01-0.14,0.01c-0.32,0.07-0.56,0.35-0.56,0.69v16.41c0,0.39,0.32,0.7,0.7,0.7h3.94c0.39,0,0.7-0.32,0.7-0.7V9.5
		l5.18,8.33c0.2,0.33,0.68,0.6,1.07,0.6h3.94c0.05,0,0.1,0,0.14-0.01c0.32-0.07,0.57-0.35,0.57-0.69V1.32
		C86.46,0.93,86.14,0.62,85.75,0.62"/>
	<path class="st0" d="M151.18,0.62h-14.34c-0.39,0-0.7,0.32-0.7,0.7v3.21c0,0.39,0.32,0.71,0.7,0.71h4.5v12.49
		c0,0.39,0.32,0.7,0.7,0.7h3.94c0.39,0,0.7-0.32,0.7-0.7V5.24h4.49c0.39,0,0.7-0.32,0.7-0.71V1.32
		C151.88,0.93,151.56,0.62,151.18,0.62"/>
	<path class="st0" d="M102.59,0.62H88.25c-0.39,0-0.71,0.32-0.71,0.7v3.21c0,0.39,0.32,0.71,0.71,0.71h4.5v12.49
		c0,0.39,0.32,0.7,0.7,0.7h3.94c0.39,0,0.71-0.32,0.71-0.7V5.24h4.49c0.39,0,0.71-0.32,0.71-0.71V1.32
		C103.29,0.93,102.98,0.62,102.59,0.62"/>
	<path class="st0" d="M118.73,5.24c0.39,0,0.7-0.32,0.7-0.71V1.32c0-0.39-0.32-0.7-0.7-0.7h-13.64c-0.39,0-0.7,0.32-0.7,0.7v16.41
		c0,0.39,0.32,0.7,0.7,0.7h13.64c0.39,0,0.7-0.32,0.7-0.7v-3.22c0-0.39-0.32-0.7-0.7-0.7h-9v-2.44h7.66c0.39,0,0.71-0.32,0.71-0.71
		V7.8c0-0.39-0.32-0.7-0.71-0.7h-7.66V5.24H118.73"/>
	<path class="st0" d="M18.77,0.62h-6.4c-0.39,0-0.88,0.26-1.1,0.59L0.1,17.84c-0.22,0.32-0.07,0.58,0.31,0.58h9.74
		c0.39,0,0.88-0.26,1.1-0.58c0,0,1.81-2.6,2.03-2.95c0.22-0.35,0.22-0.92-0.32-0.92H8.88l5.24-7.77v11.52c0,0.39,0.32,0.7,0.71,0.7
		h3.94c0.39,0,0.7-0.32,0.7-0.7V1.32C19.48,0.93,19.16,0.62,18.77,0.62"/>
	<path class="st0" d="M131.48,7.6c-2.57-0.7-5.43-0.97-5.53-2.24c0-1,1.52-1.2,2.28-1.2c0.56,0,1.07,0.21,1.53,0.54
		c0.27,0.18,0.41,0.33,0.53,0.55c0.09,0.24,0.17,0.57,0.85,0.56c0.6,0,3.53,0,3.53,0c0.33,0.02,0.71-0.21,0.74-0.67
		c-0.45-3.62-3.52-4.84-7.14-4.84c-3.74,0-7.43,1.28-7.43,5.39c0,3.59,3.39,4.77,6.26,5.56c3.13,0.87,3.77,1.16,3.77,2.09
		c0,1.07-1.51,1.47-2.17,1.47c-0.88,0-2.3-0.21-2.67-1.19c-0.08-0.2-0.14-0.34-0.17-0.52c-0.08-0.2-0.26-0.37-0.51-0.41h-4.42
		c-0.28,0.05-0.55,0.26-0.58,0.63c0.5,4.87,6.19,5.37,7.89,5.37c3.98,0,8.12-1.68,8.12-5.97C136.35,9.71,133.86,8.24,131.48,7.6"/>
	<path d="M148.11,16.25c0,1.36,1.1,2.45,2.45,2.45c1.35,0,2.45-1.09,2.45-2.45c0-1.36-1.1-2.45-2.45-2.45
		C149.2,13.8,148.11,14.89,148.11,16.25 M148.37,16.25c0-1.21,0.98-2.18,2.18-2.18c1.2,0,2.18,0.97,2.18,2.18
		c0,1.21-0.98,2.18-2.18,2.18C149.35,18.43,148.37,17.46,148.37,16.25"/>
	<path d="M149.57,14.88h1.28c0.59,0,0.89,0.27,0.89,0.72c0,0.51-0.36,0.64-0.44,0.67v0.01c0.16,0.02,0.4,0.14,0.4,0.57
		c0,0.31,0.05,0.6,0.15,0.71h-0.5c-0.07-0.12-0.07-0.26-0.07-0.39c0-0.49-0.1-0.71-0.53-0.71h-0.69v1.1h-0.47V14.88z M150.04,16.1
		h0.77c0.3,0,0.46-0.15,0.46-0.43c0-0.34-0.22-0.41-0.46-0.41h-0.76V16.1"/>
</g>
<g>
</g>
<g>
</g>
<g>
</g>
<g>
</g>
<g>
</g>
<g>
</g>
<g>
</g>
<g>
</g>
<g>
</g>
<g>
</g>
<g>
</g>
<g>
</g>
<g>
</g>
<g>
</g>
<g>
</g>
</svg>
